<svg width="91" height="91" viewBox="0 0 91 91" fill="none" xmlns="http://www.w3.org/2000/svg">
<path d="M79.922 12.894C75.865 9.544 70.662 7.701 65.27 7.701C59.032 7.701 52.999 10.181 48.713 14.508C47.717 15.514 46.803 16.621 45.957 17.848C41.578 11.5 34.507 7.664 26.889 7.664C25.491 7.664 24.075 7.791 22.68 8.047C15.471 9.357 9.80501 13.324 5.83801 19.83C0.158005 29.156 -0.292995 37.769 4.457 46.16C7.002 50.654 10.316 55.051 14.594 59.601C22.459 67.96 31.77 75.896 43.904 84.58C44.552 85.039 45.24 85.271 45.949 85.271C47.045 85.271 47.785 84.716 48.211 84.396C58.992 76.703 67.842 69.289 75.266 61.726C79.438 57.47 84.17 52.244 87.627 45.742C89.08 43.006 90.734 39.33 90.639 35.178C90.422 26.087 86.816 18.591 79.922 12.894Z" fill="#FF0000"/>
</svg>
